<svg width="260" height="107" viewBox="0 0 260 107" fill="none" xmlns="http://www.w3.org/2000/svg">
<rect width="260" height="8.15037" rx="2.9703" fill="#CED6FF"/>
<rect y="24.4165" width="260" height="8.15037" rx="2.9703" fill="#CED6FF"/>
<rect y="49.1953" width="260" height="8.15037" rx="2.9703" fill="#CED6FF"/>
<rect y="73.9741" width="260" height="8.15037" rx="2.9703" fill="#CED6FF"/>
<rect y="98.7534" width="260" height="8.15037" rx="2.9703" fill="#CED6FF"/>
<rect x="20.62" y="24.4165" width="32.806" height="8.15037" rx="2.9703" fill="#003F9C"/>
<rect x="9.13623" width="15.4099" height="8.15037" rx="2.9703" fill="#003F9C"/>
<rect y="49.1953" width="53.426" height="8.15037" rx="2.9703" fill="#003F9C"/>
<rect y="73.9741" width="110.207" height="8.15037" rx="2.9703" fill="#003F9C"/>
<rect y="98.7534" width="145.545" height="8.15037" rx="2.9703" fill="#003F9C"/>
<rect y="24.4165" width="32.806" height="8.15037" rx="2.9703" fill="#5884FF"/>
<rect y="73.9741" width="32.806" height="8.15037" rx="2.9703" fill="#5884FF"/>
<rect y="49.1948" width="22.1815" height="8.15037" rx="2.9703" fill="#5884FF"/>
<rect y="98.7534" width="79.2782" height="8.15037" rx="2.9703" fill="#5884FF"/>
<rect width="15.5779" height="8.15037" rx="2.9703" fill="#5884FF"/>
</svg>

