<svg width="17" height="17" viewBox="0 0 17 17" fill="none" xmlns="http://www.w3.org/2000/svg">
<path d="M12.7499 1.41656H4.24996C3.07413 1.41656 2.12497 2.35864 2.12497 3.52031V11.2482C2.12497 12.4099 3.07413 13.3519 4.24996 13.3519H4.7883C5.35496 13.3519 5.89329 13.5715 6.28996 13.9682L7.5012 15.1653C8.0537 15.7107 8.95328 15.7107 9.50578 15.1653L10.717 13.9682C11.1137 13.5715 11.6591 13.3519 12.2187 13.3519H12.7499C13.9258 13.3519 14.8749 12.4099 14.8749 11.2482V3.52031C14.8749 2.35864 13.9258 1.41656 12.7499 1.41656ZM11.8149 7.43738L10.9862 9.95904C10.8799 10.377 10.4337 10.717 9.98036 10.717H8.66995C8.44328 10.717 8.12454 10.639 7.98287 10.4974L6.94162 9.68279C6.92037 10.1361 6.71496 10.3274 6.21204 10.3274H5.87204C5.34788 10.3274 5.13538 10.122 5.13538 9.62612V6.24738C5.13538 5.75155 5.34788 5.54613 5.87204 5.54613H6.21912C6.74329 5.54613 6.95579 5.75155 6.95579 6.24738V6.50238L8.32995 4.46239C8.47162 4.24281 8.83287 4.08697 9.13745 4.20739C9.47036 4.32072 9.68286 4.68905 9.61203 5.01489L9.44203 6.11988C9.42078 6.21197 9.44203 6.31113 9.50578 6.37488C9.56245 6.43863 9.64745 6.48113 9.73953 6.48113H11.1208C11.3899 6.48113 11.6166 6.58738 11.7512 6.77863C11.8787 6.9628 11.8999 7.19655 11.8149 7.43738Z" fill="white"/>
</svg>

