<svg width="16" height="16" viewBox="0 0 16 16" fill="none" xmlns="http://www.w3.org/2000/svg">
<path d="M7.88797 6L10.0013 8.10667C10.0013 8.07333 10.0013 8.03333 10.0013 8C10.0013 7.46957 9.79059 6.96086 9.41552 6.58579C9.04044 6.21071 8.53174 6 8.0013 6C7.9613 6 7.92797 6 7.88797 6ZM5.0213 6.53333L6.05464 7.56667C6.0213 7.70667 6.0013 7.84667 6.0013 8C6.0013 8.53043 6.21202 9.03914 6.58709 9.41421C6.96216 9.78929 7.47087 10 8.0013 10C8.14797 10 8.29464 9.98 8.43464 9.94667L9.46797 10.98C9.0213 11.2 8.52797 11.3333 8.0013 11.3333C7.11725 11.3333 6.2694 10.9821 5.64428 10.357C5.01916 9.7319 4.66797 8.88406 4.66797 8C4.66797 7.47333 4.8013 6.98 5.0213 6.53333ZM1.33464 2.84667L2.85464 4.36667L3.15464 4.66667C2.05464 5.53333 1.18797 6.66667 0.667969 8C1.8213 10.9267 4.66797 13 8.0013 13C9.03464 13 10.0213 12.8 10.9213 12.44L11.208 12.72L13.1546 14.6667L14.0013 13.82L2.1813 2M8.0013 4.66667C8.88536 4.66667 9.7332 5.01786 10.3583 5.64298C10.9834 6.2681 11.3346 7.11595 11.3346 8C11.3346 8.42667 11.248 8.84 11.0946 9.21333L13.048 11.1667C14.048 10.3333 14.848 9.24 15.3346 8C14.1813 5.07333 11.3346 3 8.0013 3C7.06797 3 6.17464 3.16667 5.33464 3.46667L6.7813 4.9C7.1613 4.75333 7.56797 4.66667 8.0013 4.66667Z" fill="#444549"/>
</svg>

