<svg width="21" height="19" viewBox="0 0 21 19" fill="none" xmlns="http://www.w3.org/2000/svg">
<path opacity="0.4" d="M0 10.3856V8.61425C0 7.56752 0.855496 6.70196 1.91229 6.70196C3.73399 6.70196 4.47877 5.41368 3.56289 3.83353C3.03953 2.92771 3.35153 1.75015 4.26742 1.22678L6.0086 0.230381C6.80371 -0.242658 7.83031 0.0391529 8.30335 0.834261L8.41406 1.02549C9.31988 2.60564 10.8094 2.60564 11.7253 1.02549L11.836 0.834261C12.3091 0.0391529 13.3357 -0.242658 14.1308 0.230381L15.872 1.22678C16.7879 1.75015 17.0999 2.92771 16.5765 3.83353C15.6606 5.41368 16.4054 6.70196 18.2271 6.70196C19.2738 6.70196 20.1394 7.55746 20.1394 8.61425V10.3856C20.1394 11.4324 19.2839 12.2979 18.2271 12.2979C16.4054 12.2979 15.6606 13.5862 16.5765 15.1663C17.0999 16.0822 16.7879 17.2497 15.872 17.7731L14.1308 18.7695C13.3357 19.2425 12.3091 18.9607 11.836 18.1656L11.7253 17.9744C10.8195 16.3942 9.32994 16.3942 8.41406 17.9744L8.30335 18.1656C7.83031 18.9607 6.80371 19.2425 6.0086 18.7695L4.26742 17.7731C3.35153 17.2497 3.03953 16.0722 3.56289 15.1663C4.47877 13.5862 3.73399 12.2979 1.91229 12.2979C0.855496 12.2979 0 11.4324 0 10.3856Z" fill="#5884FF"/>
<path d="M10.0647 12.771C11.8712 12.771 13.3357 11.3065 13.3357 9.5C13.3357 7.69347 11.8712 6.22898 10.0647 6.22898C8.25813 6.22898 6.79365 7.69347 6.79365 9.5C6.79365 11.3065 8.25813 12.771 10.0647 12.771Z" fill="#5884FF"/>
</svg>

