<svg width="300" height="156" viewBox="0 0 300 156" fill="none" xmlns="http://www.w3.org/2000/svg">
<mask id="mask0_181_1878" style="mask-type:alpha" maskUnits="userSpaceOnUse" x="0" y="1" width="300" height="155">
<rect y="1.50049" width="300" height="153.799" fill="#D9D9D9"/>
</mask>
<g mask="url(#mask0_181_1878)">
<mask id="path-2-inside-1_181_1878" fill="white">
<path d="M5.8101 154.447C2.6228 154.521 -0.0312387 151.994 0.0186842 148.806C0.361365 126.925 5.41076 105.361 14.8383 85.6443C25.0943 64.1955 40.2344 45.5544 58.997 31.2747C77.7595 16.995 99.6009 7.49032 122.701 3.55291C143.925 -0.0647646 165.646 1.11364 186.334 6.97543C189.376 7.83746 191.03 11.0674 190.081 14.0838L186.834 24.4072C185.871 27.4698 182.595 29.1431 179.5 28.2924C162.191 23.5361 144.056 22.6233 126.33 25.6449C106.686 28.9931 88.1131 37.0756 72.1581 49.2185C56.203 61.3615 43.3283 77.2133 34.607 95.4527C26.7128 111.962 22.4285 129.995 22.021 148.31C21.9502 151.493 19.4416 154.133 16.258 154.206L5.8101 154.447Z"/>
</mask>
<path d="M5.8101 154.447C2.6228 154.521 -0.0312387 151.994 0.0186842 148.806C0.361365 126.925 5.41076 105.361 14.8383 85.6443C25.0943 64.1955 40.2344 45.5544 58.997 31.2747C77.7595 16.995 99.6009 7.49032 122.701 3.55291C143.925 -0.0647646 165.646 1.11364 186.334 6.97543C189.376 7.83746 191.03 11.0674 190.081 14.0838L186.834 24.4072C185.871 27.4698 182.595 29.1431 179.5 28.2924C162.191 23.5361 144.056 22.6233 126.33 25.6449C106.686 28.9931 88.1131 37.0756 72.1581 49.2185C56.203 61.3615 43.3283 77.2133 34.607 95.4527C26.7128 111.962 22.4285 129.995 22.021 148.31C21.9502 151.493 19.4416 154.133 16.258 154.206L5.8101 154.447Z" stroke="#5884FF" stroke-width="43.2692" stroke-linecap="round" stroke-linejoin="round" mask="url(#path-2-inside-1_181_1878)"/>
<mask id="path-3-inside-2_181_1878" fill="white">
<path d="M189.623 12.95C190.444 9.84972 193.641 8.00341 196.697 8.97713C225.628 18.1955 251.103 36.3227 269.571 60.931C288.069 85.58 298.563 115.435 299.678 146.346C299.793 149.53 297.193 152.11 294.007 152.104L283.557 152.085C280.37 152.079 277.806 149.49 277.67 146.307C276.56 120.328 267.66 95.2661 252.102 74.5345C236.552 53.8149 215.161 38.4985 190.859 30.5889C187.849 29.6093 186.038 26.481 186.849 23.4212L189.623 12.95Z"/>
</mask>
<path d="M189.623 12.95C190.444 9.84972 193.641 8.00341 196.697 8.97713C225.628 18.1955 251.103 36.3227 269.571 60.931C288.069 85.58 298.563 115.435 299.678 146.346C299.793 149.53 297.193 152.11 294.007 152.104L283.557 152.085C280.37 152.079 277.806 149.49 277.67 146.307C276.56 120.328 267.66 95.2661 252.102 74.5345C236.552 53.8149 215.161 38.4985 190.859 30.5889C187.849 29.6093 186.038 26.481 186.849 23.4212L189.623 12.95Z" stroke="#E5EAFC" stroke-width="43.2692" stroke-linecap="round" stroke-linejoin="round" mask="url(#path-3-inside-2_181_1878)"/>
</g>
<g filter="url(#filter0_d_181_1878)">
<circle cx="186.344" cy="19.0185" r="19.0185" fill="#5884FF"/>
<circle cx="186.344" cy="19.0185" r="17.2156" stroke="white" stroke-width="3.60577"/>
</g>
<defs>
<filter id="filter0_d_181_1878" x="161.557" y="0" width="49.5754" height="49.5756" filterUnits="userSpaceOnUse" color-interpolation-filters="sRGB">
<feFlood flood-opacity="0" result="BackgroundImageFix"/>
<feColorMatrix in="SourceAlpha" type="matrix" values="0 0 0 0 0 0 0 0 0 0 0 0 0 0 0 0 0 0 127 0" result="hardAlpha"/>
<feOffset dy="5.76923"/>
<feGaussianBlur stdDeviation="2.88462"/>
<feComposite in2="hardAlpha" operator="out"/>
<feColorMatrix type="matrix" values="0 0 0 0 0.0509804 0 0 0 0 0.0392157 0 0 0 0 0.172549 0 0 0 0.08 0"/>
<feBlend mode="normal" in2="BackgroundImageFix" result="effect1_dropShadow_181_1878"/>
<feBlend mode="normal" in="SourceGraphic" in2="effect1_dropShadow_181_1878" result="shape"/>
</filter>
</defs>
</svg>
