<svg width="20" height="20" viewBox="0 0 20 20" fill="none" xmlns="http://www.w3.org/2000/svg">
<path d="M9.85898 7.5L12.5007 10.1333C12.5007 10.0917 12.5007 10.0417 12.5007 10C12.5007 9.33696 12.2373 8.70107 11.7684 8.23223C11.2996 7.76339 10.6637 7.5 10.0007 7.5C9.95065 7.5 9.90899 7.5 9.85898 7.5ZM6.27565 8.16667L7.56732 9.45833C7.52565 9.63333 7.50065 9.80833 7.50065 10C7.50065 10.663 7.76404 11.2989 8.23288 11.7678C8.70173 12.2366 9.33761 12.5 10.0007 12.5C10.184 12.5 10.3673 12.475 10.5423 12.4333L11.834 13.725C11.2757 14 10.659 14.1667 10.0007 14.1667C8.89558 14.1667 7.83577 13.7277 7.05437 12.9463C6.27297 12.1649 5.83398 11.1051 5.83398 10C5.83398 9.34167 6.00065 8.725 6.27565 8.16667ZM1.66732 3.55833L3.56732 5.45833L3.94232 5.83333C2.56732 6.91667 1.48398 8.33333 0.833984 10C2.27565 13.6583 5.83398 16.25 10.0007 16.25C11.2923 16.25 12.5257 16 13.6507 15.55L14.009 15.9L16.4423 18.3333L17.5007 17.275L2.72565 2.5M10.0007 5.83333C11.1057 5.83333 12.1655 6.27232 12.9469 7.05372C13.7283 7.83512 14.1673 8.89493 14.1673 10C14.1673 10.5333 14.059 11.05 13.8673 11.5167L16.309 13.9583C17.559 12.9167 18.559 11.55 19.1673 10C17.7257 6.34167 14.1673 3.75 10.0007 3.75C8.83398 3.75 7.71732 3.95833 6.66732 4.33333L8.47565 6.125C8.95065 5.94167 9.45898 5.83333 10.0007 5.83333Z" fill="#828282"/>
</svg>

