<svg width="17" height="17" viewBox="0 0 17 17" fill="none" xmlns="http://www.w3.org/2000/svg">
<path d="M11.4679 1.41656H5.53209C2.95377 1.41656 1.41669 2.95364 1.41669 5.53197V11.4607C1.41669 14.0461 2.95377 15.5832 5.53209 15.5832H11.4608C14.0392 15.5832 15.5762 14.0461 15.5762 11.4678V5.53197C15.5833 2.95364 14.0462 1.41656 11.4679 1.41656ZM6.02084 4.51905C6.75042 4.51905 7.3525 5.11405 7.3525 5.85072C7.3525 6.58738 6.7575 7.18238 6.02084 7.18238C5.28418 7.18238 4.68918 6.57322 4.68918 5.84363C4.68918 5.11405 5.29126 4.51905 6.02084 4.51905ZM8.5 13.5149C6.59459 13.5149 5.04334 11.9636 5.04334 10.0582C5.04334 9.56237 5.44709 9.15154 5.94292 9.15154H11.0429C11.5387 9.15154 11.9425 9.55529 11.9425 10.0582C11.9567 11.9636 10.4054 13.5149 8.5 13.5149ZM10.9792 7.16821C10.2496 7.16821 9.6475 6.57322 9.6475 5.83655C9.6475 5.09989 10.2425 4.50489 10.9792 4.50489C11.7158 4.50489 12.3108 5.09989 12.3108 5.83655C12.3108 6.57322 11.7087 7.16821 10.9792 7.16821Z" fill="white"/>
</svg>

