<svg width="17" height="17" viewBox="0 0 17 17" fill="none" xmlns="http://www.w3.org/2000/svg">
<path d="M12.7499 1.41681H4.24996C3.07413 1.41681 2.12497 2.35889 2.12497 3.52055V11.2484C2.12497 12.4101 3.07413 13.3522 4.24996 13.3522H4.7883C5.35496 13.3522 5.89329 13.5718 6.28996 13.9684L7.5012 15.1655C8.0537 15.7109 8.95328 15.7109 9.50578 15.1655L10.717 13.9684C11.1137 13.5718 11.6591 13.3522 12.2187 13.3522H12.7499C13.9258 13.3522 14.8749 12.4101 14.8749 11.2484V3.52055C14.8749 2.35889 13.9258 1.41681 12.7499 1.41681ZM11.8149 7.43763L10.9862 9.95929C10.8799 10.3772 10.4337 10.7172 9.98036 10.7172H8.66995C8.44328 10.7172 8.12454 10.6393 7.98287 10.4976L6.94162 9.68304C6.92037 10.1364 6.71496 10.3276 6.21204 10.3276H5.87204C5.34788 10.3276 5.13538 10.1222 5.13538 9.62637V6.24763C5.13538 5.7518 5.34788 5.54638 5.87204 5.54638H6.21912C6.74329 5.54638 6.95579 5.7518 6.95579 6.24763V6.50263L8.32995 4.46264C8.47162 4.24305 8.83287 4.08722 9.13745 4.20764C9.47036 4.32097 9.68286 4.6893 9.61203 5.01513L9.44203 6.12013C9.42078 6.21221 9.44203 6.31138 9.50578 6.37513C9.56245 6.43888 9.64745 6.48138 9.73953 6.48138H11.1208C11.3899 6.48138 11.6166 6.58763 11.7512 6.77888C11.8787 6.96304 11.8999 7.19679 11.8149 7.43763Z" fill="#5884FF"/>
</svg>

