<svg width="18" height="18" viewBox="0 0 18 18" fill="none" xmlns="http://www.w3.org/2000/svg">
<g clip-path="url(#clip0_155_1457)">
<path d="M1.12495 3.93738H1.20483C1.3276 4.41977 1.60761 4.8475 2.0006 5.153C2.3936 5.45849 2.87718 5.62435 3.37495 5.62435C3.87271 5.62435 4.3563 5.45849 4.74929 5.153C5.14228 4.8475 5.42229 4.41977 5.54507 3.93738H16.8749C17.0241 3.93738 17.1672 3.87811 17.2727 3.77262C17.3781 3.66713 17.4374 3.52406 17.4374 3.37488C17.4374 3.22569 17.3781 3.08262 17.2727 2.97713C17.1672 2.87164 17.0241 2.81238 16.8749 2.81238H5.54507C5.42229 2.32999 5.14228 1.90226 4.74929 1.59676C4.3563 1.29126 3.87271 1.12541 3.37495 1.12541C2.87718 1.12541 2.3936 1.29126 2.0006 1.59676C1.60761 1.90226 1.3276 2.32999 1.20483 2.81238H1.12495C0.975767 2.81238 0.832694 2.87164 0.727205 2.97713C0.621716 3.08262 0.562453 3.22569 0.562453 3.37488C0.562453 3.52406 0.621716 3.66713 0.727205 3.77262C0.832694 3.87811 0.975767 3.93738 1.12495 3.93738ZM3.37495 2.24988C3.59745 2.24988 3.81496 2.31586 3.99996 2.43948C4.18497 2.56309 4.32916 2.73879 4.41431 2.94436C4.49946 3.14993 4.52173 3.37613 4.47833 3.59435C4.43492 3.81258 4.32777 4.01304 4.17044 4.17037C4.01311 4.3277 3.81265 4.43485 3.59442 4.47826C3.37619 4.52167 3.14999 4.49939 2.94443 4.41424C2.73886 4.32909 2.56316 4.1849 2.43954 3.99989C2.31593 3.81489 2.24995 3.59738 2.24995 3.37488C2.24995 3.07651 2.36847 2.79036 2.57945 2.57938C2.79043 2.36841 3.07658 2.24988 3.37495 2.24988ZM16.8749 8.43736H16.795C16.6723 7.95497 16.3923 7.52724 15.9993 7.22174C15.6063 6.91624 15.1227 6.75039 14.6249 6.75039C14.1271 6.75039 13.6436 6.91624 13.2506 7.22174C12.8576 7.52724 12.5776 7.95497 12.4548 8.43736H1.12495C0.975767 8.43736 0.832694 8.49663 0.727205 8.60212C0.621716 8.70761 0.562453 8.85068 0.562453 8.99986C0.562453 9.14905 0.621716 9.29212 0.727205 9.39761C0.832694 9.5031 0.975767 9.56236 1.12495 9.56236H12.4548C12.5776 10.0448 12.8576 10.4725 13.2506 10.778C13.6436 11.0835 14.1271 11.2493 14.6249 11.2493C15.1227 11.2493 15.6063 11.0835 15.9993 10.778C16.3923 10.4725 16.6723 10.0448 16.795 9.56236H16.8749C17.0241 9.56236 17.1672 9.5031 17.2727 9.39761C17.3781 9.29212 17.4374 9.14905 17.4374 8.99986C17.4374 8.85068 17.3781 8.70761 17.2727 8.60212C17.1672 8.49663 17.0241 8.43736 16.8749 8.43736ZM14.6249 10.1249C14.4024 10.1249 14.1849 10.0589 13.9999 9.93526C13.8149 9.81165 13.6707 9.63595 13.5856 9.43038C13.5004 9.22481 13.4781 8.99862 13.5215 8.78039C13.5649 8.56216 13.6721 8.3617 13.8294 8.20437C13.9868 8.04704 14.1872 7.93989 14.4054 7.89648C14.6237 7.85307 14.8499 7.87535 15.0554 7.9605C15.261 8.04565 15.4367 8.18984 15.5603 8.37485C15.6839 8.55985 15.7499 8.77736 15.7499 8.99986C15.7499 9.29823 15.6314 9.58438 15.4204 9.79536C15.2094 10.0063 14.9233 10.1249 14.6249 10.1249ZM16.8749 14.0624H11.1701C11.0473 13.58 10.7673 13.1522 10.3743 12.8467C9.98128 12.5412 9.4977 12.3754 8.99993 12.3754C8.50216 12.3754 8.01858 12.5412 7.62559 12.8467C7.23259 13.1522 6.95259 13.58 6.82981 14.0624H1.12495C0.975767 14.0624 0.832694 14.1216 0.727205 14.2271C0.621716 14.3326 0.562453 14.4757 0.562453 14.6248C0.562453 14.774 0.621716 14.9171 0.727205 15.0226C0.832694 15.1281 0.975767 15.1873 1.12495 15.1873H6.82981C6.95259 15.6697 7.23259 16.0975 7.62559 16.403C8.01858 16.7085 8.50216 16.8743 8.99993 16.8743C9.4977 16.8743 9.98128 16.7085 10.3743 16.403C10.7673 16.0975 11.0473 15.6697 11.1701 15.1873H16.8749C17.0241 15.1873 17.1672 15.1281 17.2727 15.0226C17.3781 14.9171 17.4374 14.774 17.4374 14.6248C17.4374 14.4757 17.3781 14.3326 17.2727 14.2271C17.1672 14.1216 17.0241 14.0624 16.8749 14.0624ZM8.99993 15.7498C8.77743 15.7498 8.55992 15.6839 8.37492 15.5603C8.18991 15.4366 8.04572 15.2609 7.96057 15.0554C7.87542 14.8498 7.85314 14.6236 7.89655 14.4054C7.93996 14.1871 8.04711 13.9867 8.20444 13.8294C8.36177 13.672 8.56223 13.5649 8.78046 13.5215C8.99868 13.4781 9.22488 13.5003 9.43045 13.5855C9.63602 13.6706 9.81172 13.8148 9.93533 13.9998C10.0589 14.1848 10.1249 14.4023 10.1249 14.6248C10.1249 14.9232 10.0064 15.2094 9.79542 15.4203C9.58445 15.6313 9.2983 15.7498 8.99993 15.7498Z" fill="#5884FF"/>
</g>
<defs>
<clipPath id="clip0_155_1457">
<rect width="17.4545" height="17.4545" fill="white" transform="scale(1.03125)"/>
</clipPath>
</defs>
</svg>

