<svg width="17" height="17" viewBox="0 0 17 17" fill="none" xmlns="http://www.w3.org/2000/svg">
<path d="M11.4679 1.41681H5.53209C2.95377 1.41681 1.41669 2.95389 1.41669 5.53222V11.4609C1.41669 14.0464 2.95377 15.5834 5.53209 15.5834H11.4608C14.0392 15.5834 15.5762 14.0464 15.5762 11.468V5.53222C15.5833 2.95389 14.0462 1.41681 11.4679 1.41681ZM6.02084 4.5193C6.75042 4.5193 7.3525 5.1143 7.3525 5.85096C7.3525 6.58763 6.7575 7.18263 6.02084 7.18263C5.28418 7.18263 4.68918 6.57346 4.68918 5.84388C4.68918 5.1143 5.29126 4.5193 6.02084 4.5193ZM8.5 13.5151C6.59459 13.5151 5.04334 11.9639 5.04334 10.0585C5.04334 9.56262 5.44709 9.15179 5.94292 9.15179H11.0429C11.5387 9.15179 11.9425 9.55554 11.9425 10.0585C11.9567 11.9639 10.4054 13.5151 8.5 13.5151ZM10.9792 7.16846C10.2496 7.16846 9.6475 6.57346 9.6475 5.8368C9.6475 5.10013 10.2425 4.50514 10.9792 4.50514C11.7158 4.50514 12.3108 5.10013 12.3108 5.8368C12.3108 6.57346 11.7087 7.16846 10.9792 7.16846Z" fill="#5884FF"/>
</svg>

