<svg width="322" height="167" viewBox="0 0 322 167" fill="none" xmlns="http://www.w3.org/2000/svg">
<line y1="139.753" x2="322" y2="139.753" stroke="#D6D6D6" stroke-width="0.493525" stroke-dasharray="0.99 0.99"/>
<line y1="114.753" x2="322" y2="114.753" stroke="#D6D6D6" stroke-width="0.493525" stroke-dasharray="0.99 0.99"/>
<line y1="89.7532" x2="322" y2="89.7532" stroke="#D6D6D6" stroke-width="0.493525" stroke-dasharray="0.99 0.99"/>
<line y1="64.7532" x2="322" y2="64.7532" stroke="#D6D6D6" stroke-width="0.493525" stroke-dasharray="0.99 0.99"/>
<line y1="39.7532" x2="322" y2="39.7532" stroke="#D6D6D6" stroke-width="0.493525" stroke-dasharray="0.99 0.99"/>
<line y1="14.7532" x2="322" y2="14.7532" stroke="#D6D6D6" stroke-width="0.493525" stroke-dasharray="0.99 0.99"/>
<g filter="url(#filter0_b_141_1293)">
<path d="M15.8187 3.9482C15.8187 1.76766 17.5864 0 19.7669 0C21.9475 0 23.7151 1.76767 23.7151 3.9482V165.026H15.8187V3.9482Z" fill="#CED6FF"/>
</g>
<path d="M15.8187 29.7119C15.8187 27.5313 17.5864 25.7637 19.7669 25.7637C21.9475 25.7637 23.7151 27.5313 23.7151 29.7119V165.026H15.8187V29.7119Z" fill="#5884FF"/>
<g filter="url(#filter1_b_141_1293)">
<path d="M48 3.9482C48 1.76766 49.7677 0 51.9482 0C54.1287 0 55.8964 1.76767 55.8964 3.9482V165.026H48V3.9482Z" fill="#CED6FF"/>
</g>
<path d="M48 107.002C48 104.822 49.7677 103.054 51.9482 103.054C54.1287 103.054 55.8964 104.822 55.8964 107.002V165.026H48V107.002Z" fill="#5884FF"/>
<g filter="url(#filter2_b_141_1293)">
<path d="M80 3.9482C80 1.76766 81.7677 0 83.9482 0C86.1287 0 87.8964 1.76767 87.8964 3.9482V165.026H80V3.9482Z" fill="#CED6FF"/>
</g>
<path d="M80 64.5273C80 62.3468 81.7677 60.5791 83.9482 60.5791C86.1287 60.5791 87.8964 62.3468 87.8964 64.5273V165.026H80V64.5273Z" fill="#5884FF"/>
<g filter="url(#filter3_b_141_1293)">
<path d="M112 3.9482C112 1.76766 113.768 0 115.948 0C118.129 0 119.896 1.76767 119.896 3.9482V165.026H112V3.9482Z" fill="#CED6FF"/>
</g>
<path d="M112 150.87C112 148.69 113.768 146.922 115.948 146.922C118.129 146.922 119.896 148.69 119.896 150.87V165.026H112V150.87Z" fill="#5884FF"/>
<g filter="url(#filter4_b_141_1293)">
<path d="M144 3.9482C144 1.76766 145.768 0 147.948 0C150.129 0 151.896 1.76767 151.896 3.9482V165.026H144V3.9482Z" fill="#CED6FF"/>
</g>
<path d="M144 18.5708C144 16.3902 145.768 14.6226 147.948 14.6226C150.129 14.6226 151.896 16.3902 151.896 18.5708V165.026H144V18.5708Z" fill="#5884FF"/>
<g filter="url(#filter5_b_141_1293)">
<path d="M176 3.9482C176 1.76766 177.768 0 179.948 0C182.129 0 183.896 1.76767 183.896 3.9482V165.026H176V3.9482Z" fill="#CED6FF"/>
</g>
<path d="M176 119.536C176 117.356 177.768 115.588 179.948 115.588C182.129 115.588 183.896 117.356 183.896 119.536V165.026H176V119.536Z" fill="#5884FF"/>
<g filter="url(#filter6_b_141_1293)">
<path d="M208 3.9482C208 1.76766 209.768 0 211.948 0C214.129 0 215.896 1.76767 215.896 3.9482V165.026H208V3.9482Z" fill="#CED6FF"/>
</g>
<path d="M208 134.855C208 132.674 209.768 130.907 211.948 130.907C214.129 130.907 215.896 132.674 215.896 134.855V165.026H208V134.855Z" fill="#5884FF"/>
<g filter="url(#filter7_b_141_1293)">
<path d="M240 4.9482C240 2.76766 241.768 1 243.948 1C246.129 1 247.896 2.76767 247.896 4.9482V166.026H240V4.9482Z" fill="#CED6FF"/>
</g>
<path d="M240 135.855C240 133.674 241.768 131.907 243.948 131.907C246.129 131.907 247.896 133.674 247.896 135.855V166.026H240V135.855Z" fill="#5884FF"/>
<g filter="url(#filter8_b_141_1293)">
<path d="M272 3.9482C272 1.76766 273.768 0 275.948 0C278.129 0 279.896 1.76767 279.896 3.9482V165.026H272V3.9482Z" fill="#CED6FF"/>
</g>
<path d="M272 82.6313C272 80.4508 273.768 78.6831 275.948 78.6831C278.129 78.6831 279.896 80.4508 279.896 82.6313V165.026H272V82.6313Z" fill="#5884FF"/>
<g filter="url(#filter9_b_141_1293)">
<path d="M304 3.9482C304 1.76766 305.768 0 307.948 0C310.129 0 311.896 1.76767 311.896 3.9482V165.026H304V3.9482Z" fill="#CED6FF"/>
</g>
<path d="M304 111.18C304 109 305.768 107.232 307.948 107.232C310.129 107.232 311.896 109 311.896 111.18V165.026H304V111.18Z" fill="#5884FF"/>
<line x1="0.246763" y1="-1.52184e-08" x2="0.246768" y2="165.026" stroke="#D6D6D6" stroke-width="0.493525"/>
<line x1="322" y1="165.247" x2="-2.15726e-08" y2="165.247" stroke="#D6D6D6" stroke-width="0.493525"/>
<defs>
<filter id="filter0_b_141_1293" x="9.89642" y="-5.9223" width="19.741" height="176.87" filterUnits="userSpaceOnUse" color-interpolation-filters="sRGB">
<feFlood flood-opacity="0" result="BackgroundImageFix"/>
<feGaussianBlur in="BackgroundImageFix" stdDeviation="2.96115"/>
<feComposite in2="SourceAlpha" operator="in" result="effect1_backgroundBlur_141_1293"/>
<feBlend mode="normal" in="SourceGraphic" in2="effect1_backgroundBlur_141_1293" result="shape"/>
</filter>
<filter id="filter1_b_141_1293" x="42.0777" y="-5.9223" width="19.741" height="176.87" filterUnits="userSpaceOnUse" color-interpolation-filters="sRGB">
<feFlood flood-opacity="0" result="BackgroundImageFix"/>
<feGaussianBlur in="BackgroundImageFix" stdDeviation="2.96115"/>
<feComposite in2="SourceAlpha" operator="in" result="effect1_backgroundBlur_141_1293"/>
<feBlend mode="normal" in="SourceGraphic" in2="effect1_backgroundBlur_141_1293" result="shape"/>
</filter>
<filter id="filter2_b_141_1293" x="74.0777" y="-5.9223" width="19.741" height="176.87" filterUnits="userSpaceOnUse" color-interpolation-filters="sRGB">
<feFlood flood-opacity="0" result="BackgroundImageFix"/>
<feGaussianBlur in="BackgroundImageFix" stdDeviation="2.96115"/>
<feComposite in2="SourceAlpha" operator="in" result="effect1_backgroundBlur_141_1293"/>
<feBlend mode="normal" in="SourceGraphic" in2="effect1_backgroundBlur_141_1293" result="shape"/>
</filter>
<filter id="filter3_b_141_1293" x="106.078" y="-5.9223" width="19.741" height="176.87" filterUnits="userSpaceOnUse" color-interpolation-filters="sRGB">
<feFlood flood-opacity="0" result="BackgroundImageFix"/>
<feGaussianBlur in="BackgroundImageFix" stdDeviation="2.96115"/>
<feComposite in2="SourceAlpha" operator="in" result="effect1_backgroundBlur_141_1293"/>
<feBlend mode="normal" in="SourceGraphic" in2="effect1_backgroundBlur_141_1293" result="shape"/>
</filter>
<filter id="filter4_b_141_1293" x="138.078" y="-5.9223" width="19.741" height="176.87" filterUnits="userSpaceOnUse" color-interpolation-filters="sRGB">
<feFlood flood-opacity="0" result="BackgroundImageFix"/>
<feGaussianBlur in="BackgroundImageFix" stdDeviation="2.96115"/>
<feComposite in2="SourceAlpha" operator="in" result="effect1_backgroundBlur_141_1293"/>
<feBlend mode="normal" in="SourceGraphic" in2="effect1_backgroundBlur_141_1293" result="shape"/>
</filter>
<filter id="filter5_b_141_1293" x="170.078" y="-5.9223" width="19.741" height="176.87" filterUnits="userSpaceOnUse" color-interpolation-filters="sRGB">
<feFlood flood-opacity="0" result="BackgroundImageFix"/>
<feGaussianBlur in="BackgroundImageFix" stdDeviation="2.96115"/>
<feComposite in2="SourceAlpha" operator="in" result="effect1_backgroundBlur_141_1293"/>
<feBlend mode="normal" in="SourceGraphic" in2="effect1_backgroundBlur_141_1293" result="shape"/>
</filter>
<filter id="filter6_b_141_1293" x="202.078" y="-5.9223" width="19.741" height="176.87" filterUnits="userSpaceOnUse" color-interpolation-filters="sRGB">
<feFlood flood-opacity="0" result="BackgroundImageFix"/>
<feGaussianBlur in="BackgroundImageFix" stdDeviation="2.96115"/>
<feComposite in2="SourceAlpha" operator="in" result="effect1_backgroundBlur_141_1293"/>
<feBlend mode="normal" in="SourceGraphic" in2="effect1_backgroundBlur_141_1293" result="shape"/>
</filter>
<filter id="filter7_b_141_1293" x="234.078" y="-4.9223" width="19.741" height="176.87" filterUnits="userSpaceOnUse" color-interpolation-filters="sRGB">
<feFlood flood-opacity="0" result="BackgroundImageFix"/>
<feGaussianBlur in="BackgroundImageFix" stdDeviation="2.96115"/>
<feComposite in2="SourceAlpha" operator="in" result="effect1_backgroundBlur_141_1293"/>
<feBlend mode="normal" in="SourceGraphic" in2="effect1_backgroundBlur_141_1293" result="shape"/>
</filter>
<filter id="filter8_b_141_1293" x="266.078" y="-5.9223" width="19.741" height="176.87" filterUnits="userSpaceOnUse" color-interpolation-filters="sRGB">
<feFlood flood-opacity="0" result="BackgroundImageFix"/>
<feGaussianBlur in="BackgroundImageFix" stdDeviation="2.96115"/>
<feComposite in2="SourceAlpha" operator="in" result="effect1_backgroundBlur_141_1293"/>
<feBlend mode="normal" in="SourceGraphic" in2="effect1_backgroundBlur_141_1293" result="shape"/>
</filter>
<filter id="filter9_b_141_1293" x="298.078" y="-5.9223" width="19.741" height="176.87" filterUnits="userSpaceOnUse" color-interpolation-filters="sRGB">
<feFlood flood-opacity="0" result="BackgroundImageFix"/>
<feGaussianBlur in="BackgroundImageFix" stdDeviation="2.96115"/>
<feComposite in2="SourceAlpha" operator="in" result="effect1_backgroundBlur_141_1293"/>
<feBlend mode="normal" in="SourceGraphic" in2="effect1_backgroundBlur_141_1293" result="shape"/>
</filter>
</defs>
</svg>

