<svg width="22" height="22" viewBox="0 0 22 22" fill="none" xmlns="http://www.w3.org/2000/svg">
<path d="M7.93023 8.95349C9.06049 8.95349 9.97674 8.03723 9.97674 6.90698C9.97674 5.77672 9.06049 4.86047 7.93023 4.86047C6.79998 4.86047 5.88372 5.77672 5.88372 6.90698C5.88372 8.03723 6.79998 8.95349 7.93023 8.95349Z" stroke="#005EE2" stroke-width="1.5" stroke-linecap="round" stroke-linejoin="round"/>
<path d="M12.0233 0.767442H7.93023C2.81395 0.767442 0.767442 2.81395 0.767442 7.93023V14.0698C0.767442 19.186 2.81395 21.2326 7.93023 21.2326H14.0698C19.186 21.2326 21.2326 19.186 21.2326 14.0698V8.95349" stroke="#005EE2" stroke-width="1.5" stroke-linecap="round" stroke-linejoin="round"/>
<path d="M14.8372 3.83721H20.4651" stroke="#005EE2" stroke-width="1.5" stroke-linecap="round"/>
<path d="M17.6512 6.65116V1.02326" stroke="#005EE2" stroke-width="1.5" stroke-linecap="round"/>
<path d="M1.45301 18.1117L6.49766 14.7247C7.30603 14.1824 8.47254 14.2438 9.19905 14.868L9.53673 15.1647C10.3349 15.8503 11.6242 15.8503 12.4223 15.1647L16.6791 11.5117C17.4772 10.8261 18.7665 10.8261 19.5646 11.5117L21.2325 12.9442" stroke="#005EE2" stroke-width="1.5" stroke-linecap="round" stroke-linejoin="round"/>
</svg>

